<svg xmlns="http://www.w3.org/2000/svg" width="1021.3442pt" height="354.15585pt" viewBox="0 0 1021.3443 354.15586"><path fill="#fff" d="M1007.538 4.342 514.002 348.838 33.235 4.342Z" style="stroke-width:10.8956"/><path fill="none" stroke="#fff" stroke-width="8.68377" d="M1007.538 4.342 514.002 348.838 33.235 4.342Z"/><path fill="#fff" d="M39.212 53.984s97.766-19.373 110.089-22.02c0 0-10.569 105.687-29.07 147.972l-38.744 8.804s14.981-14.099 26.422-118.903L34.81 84.807z" style="stroke-width:10.8956"/><path fill="none" stroke="#fff" stroke-width="8.68377" d="M39.212 53.984s97.766-19.373 110.089-22.02c0 0-10.569 105.687-29.07 147.972l-38.744 8.804s14.981-14.099 26.422-118.903L34.81 84.807z"/><path fill="#fff" d="m8.385 201.95 126.825-24.667-5.285 29.952-74.863 15.842 19.383-26.421s-13.216 2.647-30.834 15.853c0 0-32.589 20.254-38.745 20.254z" style="stroke-width:10.8956"/><path fill="none" stroke="#fff" stroke-width="8.68377" d="m8.385 201.95 126.825-24.667-5.285 29.952-74.863 15.842 19.383-26.421s-13.216 2.647-30.834 15.853c0 0-32.589 20.254-38.745 20.254z"/><path fill="#fff" d="m166.028 53.103 81.03-14.099s-9.686 97.766-94.236 123.305c0 0-1.765-20.254-5.284-28.175 0 0 37.873-6.167 53.726-56.363l-39.638 7.027z" style="stroke-width:10.8956"/><path fill="none" stroke="#fff" stroke-width="8.68377" d="m166.028 53.103 81.03-14.099s-9.686 97.766-94.236 123.305c0 0-1.765-20.254-5.284-28.175 0 0 37.873-6.167 53.726-56.363l-39.638 7.027z"/><path fill="#fff" d="m239.136 65.432 13.205-1.754 5.285-31.717 32.588-6.167-18.49 116.267-31.706 4.402 8.39-54.99-20.723 3.018z" style="stroke-width:10.8956"/><path fill="none" stroke="#fff" stroke-width="8.68377" d="m239.136 65.432 13.205-1.754 5.285-31.717 32.588-6.167-18.49 116.267-31.706 4.402 8.39-54.99-20.723 3.018z"/><path fill="#fff" d="m199.95 141.864 34.332-6.112s1.602 44.628 41.72 44.944l-14.764 30.17s-31.445 8.019-50.697-20.223c0 0-28.569 32.73-58.412 43.321l-8.988-25.986s43.647-17.019 56.81-66.114" style="stroke-width:10.8956"/><path fill="none" stroke="#fff" stroke-width="8.68377" d="m199.95 141.864 34.332-6.112s1.602 44.628 41.72 44.944l-14.764 30.17s-31.445 8.019-50.697-20.223c0 0-28.569 32.73-58.412 43.321l-8.988-25.986s43.647-17.019 56.81-66.114"/><path fill="#fff" d="M336.686 37.45s-29.658-6.048-53.246 77.445c0 0-12.095 54.467 3.628 87.731l36.304-16.931-26.618 30.246s4.838 5.437 13.314 5.437c0 0 37.503.61 53.846-96.197 0 0 12.694-80.464-27.228-87.731m-2.397 90.237c-3.269 32.458-11.048 58.236-17.39 57.594-6.34-.632-8.846-27.457-5.589-59.893 3.269-32.447 11.048-58.248 17.4-57.605 6.342.643 8.837 27.468 5.58 59.904" style="stroke-width:10.8956"/><path fill="none" stroke="#fff" stroke-width="8.68377" d="M336.686 37.45s-29.658-6.048-53.246 77.445c0 0-12.095 54.467 3.628 87.731l36.304-16.931-26.618 30.246s4.838 5.437 13.314 5.437c0 0 37.503.61 53.846-96.197 0 0 12.694-80.464-27.228-87.731zm-2.397 90.237c-3.269 32.458-11.048 58.236-17.39 57.594-6.34-.632-8.846-27.457-5.589-59.893 3.27-32.447 11.048-58.248 17.4-57.605 6.342.643 8.837 27.468 5.58 59.904z"/><path fill="#fff" d="M383.272 33.827s19.362-1.21 30.857-6.047l-17.542 182.108-30.857 7.867z" style="stroke-width:10.8956"/><path fill="none" stroke="#fff" stroke-width="8.68377" d="M383.272 33.827s19.362-1.21 30.857-6.047l-17.542 182.108-30.857 7.867z"/><path fill="#fff" d="M518.143 45.898c-14.219-13.848-41.74-8.651-61.494 11.626-19.754 20.276-24.243 47.93-10.024 61.777 14.207 13.849 41.74 8.64 61.494-11.625 19.743-20.277 24.243-47.93 10.024-61.778m-23.011 40.858c-4.075 9.828-12.846 15.516-19.58 12.715-6.744-2.8-8.901-13.042-4.826-22.858 4.096-9.817 12.867-15.527 19.6-12.716 6.745 2.811 8.902 13.042 4.806 22.86" style="stroke-width:10.8956"/><path fill="none" stroke="#fff" stroke-width="8.68377" d="M518.143 45.898c-14.219-13.848-41.74-8.651-61.494 11.626-19.754 20.276-24.243 47.93-10.024 61.777 14.207 13.849 41.74 8.64 61.494-11.625 19.743-20.277 24.243-47.93 10.024-61.778zm-23.011 40.858c-4.075 9.828-12.846 15.516-19.58 12.715-6.744-2.8-8.901-13.042-4.826-22.858 4.096-9.817 12.867-15.527 19.6-12.716 6.745 2.811 8.902 13.042 4.806 22.86z"/><path fill="#fff" d="M540.211 32.006s25.42-4.227 30.867-6.036l-3.628 24.188 16.932-2.419-3.03 26.63-18.14 2.407-4.838 33.885s-26.019 4.838-29.658 6.657z" style="stroke-width:10.8956"/><path fill="none" stroke="#fff" stroke-width="8.68377" d="M540.211 32.006s25.42-4.227 30.867-6.036l-3.628 24.188 16.932-2.419-3.03 26.63-18.14 2.407-4.838 33.885s-26.019 4.838-29.658 6.657z"/><path fill="#fff" d="m450.677 139.1 107.691-19.972-8.476 54.456-74.417 15.123s-4.838 8.477 5.448 7.268l67.77-14.524-4.238 24.199-93.778 18.762s-10.896 1.809-10.297-12.105l5.459-39.322 75.016-15.134s3.628-2.408 4.238-6.047c0 0-1.82-3.029-7.866-1.82l-70.19 13.315z" style="stroke-width:10.8956"/><path fill="none" stroke="#fff" stroke-width="8.68377" d="m450.677 139.1 107.691-19.972-8.476 54.456-74.417 15.123s-4.838 8.477 5.448 7.268l67.77-14.524-4.238 24.199-93.778 18.762s-10.896 1.809-10.297-12.105l5.459-39.322 75.016-15.134s3.628-2.408 4.238-6.047c0 0-1.82-3.029-7.866-1.82l-70.19 13.315z"/><path fill="#fff" d="M592.501 48.255s100.544-19.373 113.227-22.02c0 0-10.874 105.698-29.898 147.972l-39.856 8.804s15.407-14.099 27.185-118.903l-75.18 14.97z" style="stroke-width:10.8956"/><path fill="none" stroke="#fff" stroke-width="8.68377" d="M592.501 48.255s100.544-19.373 113.227-22.02c0 0-10.874 105.698-29.898 147.972l-39.856 8.804s15.407-14.099 27.185-118.903l-75.18 14.97z"/><path fill="#fff" d="m559.764 197.858 27.947-4.554 16.9-103.355 34.451-6.494-14.949 101.394 64.36-13.641-3.9 31.194-66.31 13.01s20.8-22.108 22.75-26.662c0 0-9.098 2.604-27.294 13.652 0 0-44.857 25.354-59.163 25.354z" style="stroke-width:10.8956"/><path fill="none" stroke="#fff" stroke-width="8.68377" d="m559.764 197.858 27.947-4.554 16.9-103.355 34.451-6.494-14.949 101.394 64.36-13.641-3.9 31.194-66.31 13.01s20.8-22.108 22.75-26.662c0 0-9.098 2.604-27.294 13.652 0 0-44.857 25.354-59.163 25.354z"/><path fill="#fff" d="M768.09 47.055s18.196-1.307 38.353-6.505c0 0-.654 40.946 24.69 50.044l-14.938 28.612s-26.651-2.605-38.353-25.344c0 0-13.652 25.354-45.5 41.589l-11.702-20.8s40.292-22.739 47.45-67.596" style="stroke-width:10.8956"/><path fill="none" stroke="#fff" stroke-width="8.68377" d="M768.09 47.055s18.196-1.307 38.353-6.505c0 0-.654 40.946 24.69 50.044l-14.938 28.612s-26.651-2.605-38.353-25.344c0 0-13.652 25.354-45.5 41.589l-11.702-20.8s40.292-22.739 47.45-67.596"/><path fill="#fff" d="m836.338 31.451 34.452-7.158-14.295 89.714s-27.304 1.95-32.501 5.197z" style="stroke-width:10.8956"/><path fill="none" stroke="#fff" stroke-width="8.68377" d="m836.338 31.451 34.452-7.158-14.295 89.714s-27.304 1.95-32.501 5.197z"/><path fill="#fff" d="m850.638 149.746 5.208-29.887c-1.308 1.95-114.404 20.8-114.404 20.8l-4.554 27.304 9.098-1.95-4.544 27.293-7.8 1.95-5.852 31.205 113.107-20.8 5.851-30.561-7.158 1.307 3.246-26.007zm-46.797 33.166-27.947 5.186 3.89-26.65s19.503-2.604 27.958-5.84z" style="stroke-width:10.8956"/><path fill="none" stroke="#fff" stroke-width="8.68377" d="m850.638 149.746 5.208-29.887c-1.308 1.95-114.404 20.8-114.404 20.8l-4.554 27.304 9.098-1.95-4.544 27.293-7.8 1.95-5.852 31.205 113.107-20.8 5.851-30.561-7.158 1.307 3.246-26.007zm-46.797 33.166-27.947 5.186 3.89-26.65s19.503-2.604 27.958-5.84z"/><path fill="#fff" d="M880.174 54.255s69.492-10.918 77.305-14.36l-5.252 29.712s-38.974 9.446-42.515 9.446l-14.175 94.508 35.433-3.54s11.92-.84 16.55-11.822l20.298-121.42s25.758-4.969 30.486-6.146l-8.259 54.336 23.611-3.552-5.905 28.362-21.258 1.176-16.54 99.226-34.255 8.27 5.906-23.622s-7.3 5.633-21.258 8.27l-47.254 8.259s-17.716 3.552-16.54-16.529z" style="stroke-width:10.8956"/><path fill="none" stroke="#fff" stroke-width="8.68377" d="M880.174 54.255s69.492-10.918 77.305-14.36l-5.252 29.712s-38.974 9.446-42.515 9.446l-14.175 94.508 35.433-3.54s11.92-.84 16.55-11.822l20.298-121.42s25.758-4.969 30.486-6.146l-8.259 54.336 23.611-3.552-5.905 28.362-21.258 1.176-16.54 99.226-34.255 8.27 5.906-23.622s-7.3 5.633-21.258 8.27l-47.254 8.259s-17.716 3.552-16.54-16.529z"/><path fill="#fdb514" d="M1008.02 3.323 514.485 347.82 33.717 3.323Z" style="stroke-width:10.8956"/><path fill="#221f20" d="M39.694 52.963s97.766-19.373 110.089-22.02c0 0-10.57 105.687-29.07 147.972L81.97 187.72s14.98-14.088 26.421-118.903l-73.098 14.97z" style="stroke-width:10.8956"/><path fill="#221f20" d="m8.867 200.932 126.824-24.667-5.284 29.951-74.864 15.843 19.384-26.422s-13.217 2.647-30.835 15.853c0 0-32.588 20.255-38.744 20.255zM166.51 52.082l81.03-14.099s-9.686 97.766-94.236 123.316c0 0-1.765-20.265-5.284-28.186 0 0 37.873-6.167 53.726-56.363l-39.638 7.027z" style="stroke-width:10.8956"/><path fill="#221f20" d="m239.618 64.41 13.205-1.754 5.284-31.717 32.589-6.167-18.49 116.267-31.706 4.402 8.39-54.98-20.724 3.008z" style="stroke-width:10.8956"/><path fill="#221f20" d="m200.43 140.845 34.332-6.112s1.602 44.628 41.73 44.944l-14.774 30.17s-31.445 8.019-50.697-20.223c0 0-28.568 32.73-58.411 43.321l-8.989-25.986s43.648-17.019 56.81-66.114M337.167 36.43s-29.647-6.047-53.247 77.446c0 0-12.094 54.467 3.628 87.731l36.304-16.931-26.618 30.246s4.838 5.437 13.315 5.437c0 0 37.502.61 53.846-96.197 0 0 12.693-80.475-27.228-87.731m-2.397 90.237c-3.27 32.457-11.049 58.236-17.39 57.594-6.341-.632-8.847-27.457-5.59-59.893 3.27-32.447 11.049-58.248 17.401-57.605 6.341.643 8.836 27.467 5.579 59.904M383.755 32.806s19.361-1.21 30.845-6.058l-17.53 182.12-30.857 7.866zM518.623 44.877c-14.218-13.848-41.74-8.651-61.494 11.625-19.754 20.277-24.243 47.93-10.024 61.778 14.208 13.849 41.74 8.64 61.495-11.625 19.753-20.277 24.242-47.93 10.023-61.778m-23.011 40.858c-4.075 9.828-12.846 15.516-19.58 12.715-6.744-2.8-8.89-13.042-4.815-22.848 4.086-9.827 12.857-15.526 19.59-12.726 6.744 2.811 8.902 13.042 4.805 22.86M540.694 30.987s25.419-4.238 30.856-6.047l-3.618 24.2 16.932-2.42-3.029 26.63-18.14 2.407-4.839 33.885s-26.018 4.838-29.657 6.658zM451.158 138.08l107.692-19.97-8.477 54.455-74.417 15.123s-4.837 8.477 5.448 7.268l67.76-14.524-4.228 24.199-93.778 18.762s-10.895 1.809-10.296-12.105l5.448-39.322 75.026-15.134s3.629-2.408 4.239-6.047c0 0-1.82-3.029-7.867-1.82L447.52 162.28zM592.981 47.235s100.545-19.373 113.227-22.02c0 0-10.874 105.698-29.897 147.972l-39.856 8.804s15.406-14.099 27.184-118.903l-75.18 14.97z" style="stroke-width:10.8956"/><path fill="#221f20" d="m560.247 196.84 27.947-4.555L605.093 88.93l34.452-6.494-14.95 101.394 64.35-13.641-3.89 31.194-66.31 13.01s20.8-22.108 22.75-26.662c0 0-9.098 2.604-27.293 13.652 0 0-44.857 25.354-59.163 25.354zM768.573 46.035s18.196-1.307 38.353-6.505c0 0-.654 40.946 24.689 50.044l-14.938 28.611s-26.65-2.604-38.352-25.343c0 0-13.652 25.354-45.511 41.589l-11.691-20.8s40.292-22.739 47.45-67.596" style="stroke-width:10.8956"/><path fill="#221f20" d="m836.82 30.431 34.453-7.158-14.295 89.714s-27.305 1.95-32.502 5.197zM851.118 148.728l5.208-29.887c-1.307 1.95-114.403 20.8-114.403 20.8l-4.555 27.293 9.098-1.94-4.543 27.294-7.802 1.95-5.85 31.206 113.106-20.8 5.851-30.562-7.158 1.307 3.247-26.007zm-46.796 33.155-27.948 5.197 3.901-26.65s19.492-2.604 27.947-5.84zM880.657 53.233s69.492-10.918 77.315-14.36l-5.263 29.712s-38.973 9.446-42.525 9.446L896.02 172.55l35.432-3.552s11.92-.839 16.54-11.81L968.3 35.755s25.757-4.968 30.486-6.156l-8.27 54.347 23.622-3.552-5.906 28.362-21.257 1.176-16.54 99.226-34.255 8.27 5.894-23.622s-7.289 5.633-21.246 8.27l-47.254 8.259s-17.716 3.552-16.55-16.529z" style="stroke-width:10.8956"/></svg>